<svg width="36" height="36" viewBox="0 0 36 36" fill="none" xmlns="http://www.w3.org/2000/svg">
    <g opacity="0.4">
        <path d="M14.5 13.75C14.5 11.9516 15.9545 10.5 17.755 10.5C19.5565 10.5 21 11.9525 21 13.75C21 15.5475 19.5565 17 17.755 17C15.9545 17 14.5 15.5484 14.5 13.75ZM13.2834 20.3941C14.7722 19.7984 16.5538 19.5 17.75 19.5C18.9462 19.5 20.7278 19.7984 22.2166 20.3941C22.9612 20.6921 23.6484 21.0706 24.1534 21.5364C24.6607 22.0042 25 22.5762 25 23.25V23.75C25 24.9926 23.9926 26 22.75 26H12.75C11.5074 26 10.5 24.9926 10.5 23.75V23.25C10.5 22.5762 10.8393 22.0042 11.3466 21.5364C11.8516 21.0706 12.5388 20.6921 13.2834 20.3941Z"
              stroke="#2D2E46"/>
    </g>
</svg>
